DataType=double
version=3
OpenSimVersion=4.5-2023-11-26-efcdfd3eb
endheader
time	EMG01_right_gast_med	EMG02_right_glut_max	EMG03_left_gast_med	EMG04_left_glut_max	EMG05_right_glut_med	EMG06_right_bic_fem	EMG07_right_rect_fem	EMG08_right_vast_lat	EMG09_right_vast_med	EMG10_right_tens_fasc_lat	EMG11_left_glut_med	EMG12_left_bic_fem	EMG13_left_rect_fem	EMG14_left_vast_lat	EMG15_left_vast_med	EMG16_left_tens_fasc_lat
0	-5.692417978060031	1.05694016381334	0.6736418047917464	6.838947401270973	3.385902877577385	-0.7700179005186736	0.111890684375476	0.05280181073645934	3.440334229460052	3.465688750336363	0.2896202550716995	0.2897078131803219	1.286005222366615	2.271993053316163	2.685284056414959	3.493393155224621
0.01	-2.93059223085681	2.611834215002254	1.998966802947408	9.980638563102957	9.665869592779817	3.081375169746019	0.6140691353461808	0.4793360693686	8.002594519673933	7.541539620186807	0.5294605073394557	0.6715094011992074	1.467601007948045	3.249357152889019	4.57471623606977	7.191095785437455
0.02	0.1510008449300496	4.159037283200353	3.326595789244535	13.1164715689273	15.83993002918142	6.932687980413408	1.11758699004229	0.9073148672653574	12.40660416921694	11.47614060131993	0.7627149878204706	1.03497386452868	1.63537334703837	4.146932163445309	6.356634727479832	10.88658117064448
0.03	3.554495642410473	5.682922309649777	4.640470822808056	16.2258288440374	21.85674933968898	10.74053350384952	1.61771845915608	1.332366197107491	16.62667845693806	15.23919630419077	0.9881220219554759	1.377808473407772	1.787268212201212	4.960175779287034	8.020190620768469	14.57042407900511
0.04	7.279711173263848	7.168127683290171	5.924875429184991	19.28770796525272	27.66647412904022	14.46296630262411	2.109924898134556	1.750313788103801	20.63872366559088	18.80212423995515	1.204589056615537	1.698065853014682	1.921408296152814	5.685335171125383	9.55547375134681	18.23259611273045
0.05	11.32407293741359	8.599818419392992	7.164743369293673	22.28093785619332	33.22150668373844	18.06031091157067	2.589946785593228	2.157264783277049	24.42052772802085	22.13850869319712	1.411220092339059	1.99419327490787	2.03613646823778	6.319500032805907	10.95364331885858	21.86242454368821
0.06	15.68253968276323	9.963928176692415	8.345928640581185	25.18441026772713	38.4772171504936	21.49589435438422	3.05388545272191	2.549685486639894	27.95202323933831	25.22450889175716	1.607339452662857	2.26507584025888	2.130057082898887	6.860651231218051	12.20705028391577	25.44857529331269
0.07000000000000001	20.34753747583084	11.24737571755589	9.455431383398887	27.9773253612531	43.39258304586996	24.73666314362579	3.498272444313847	2.92446409958513	31.21551870229672	28.03921194505956	1.792511308775258	2.510072562083947	2.202074363587564	7.30770477752101	13.30934995634931	28.9790640820634
0.08	25.30890587097434	12.43825131060261	10.48157809448593	30.63944958232919	47.93074947772908	27.7536724056123	3.920125178485328	3.278960358587603	34.19589474636421	30.56492427739018	1.966554552990536	2.729044619244992	2.25142718756466	7.66055064000775	14.25560356616448	32.44129897654221
0.09	30.55386257224826	13.52597071273414	11.41415726636675	33.15138307975808	52.05950573722945	30.5224419222271	4.316988327770241	3.611042460025365	36.88076240417907	32.78739825510926	2.129552779803811	2.922375305847953	2.277719716831373	7.920085670264693	15.04236785545082	35.82215655929648
0.1	36.06699364986372	14.5013962787785	12.24451335408064	35.49483278791487	55.75167535562463	33.0231803873973	4.686960990303837	3.919111785376118	39.26058082897544	34.69599306547983	2.281859267727185	3.090981389209226	2.280947466273291	8.088239670086187	15.66777188600078	39.10809271976115
0.11	41.83027631202725	15.35692609287409	12.96560294257747	37.65288608861798	58.98541810145607	35.24088423031333	5.028710175336319	4.202115893823493	41.32873266548835	36.2837706673033	2.424096941770355	3.236315693204352	2.261518534658873	8.167993405523973	16.13158030650723	42.28528761361151
0.12	47.82314075378852	16.08655275419903	13.57201747767727	39.61027889603257	61.74444427798473	37.16532069089337	5.34147138584532	4.459550158894623	43.08155676454499	37.54752897579768	2.55715336036322	3.360360768994061	2.220269800410035	8.163387167264201	16.43524218784266	45.33982269544945
0.13	54.02257678702773	16.68589380549002	14.05997721111152	41.35365124529993	64.01814412733313	38.79090691145983	5.625037206698215	4.691448394246054	44.51833949064323	38.48777550523683	2.682170855216048	3.465613550693937	2.158477897473181	8.07951829239339	16.58192420229012	48.25788593491826
0.14	60.40328966945003	17.15219600202428	14.4273011274092	42.87178308362513	65.80163758348952	40.11649829277584	5.879734874305884	4.898362903599477	45.64126668971426	39.10864551271249	2.800532059252518	3.555060954061149	2.077864779262387	7.922525978842157	16.57652651234613	51.02599941743843
0.15	66.93790768292921	17.48431576132345	14.6733575073586	44.15580293437483	67.09575111877263	41.14510059001496	6.106393865836687	5.081334610017654	46.45533819328636	39.41776920119277	2.913841145106959	3.632146481098026	1.98059769255768	7.699561844393001	16.42567942122945	53.63126161119625
0.16	73.59724155661317	17.68267820337563	14.79899946113313	45.19936236063641	67.90692865984219	41.88352113406429	6.306304632070166	5.241854235124082	46.96824617360845	39.426092728684	3.023901140509245	3.700728053729111	1.869283420153374	7.418745033307544	16.1377187506027	56.06159491066075
0.17	80.35059284202862	17.7492171687963	14.80648930109093	45.99876959317282	68.24708316365562	42.34197491402336	6.481169711171786	5.381815827701783	47.19021868158652	39.14765784199898	3.132687706805772	3.765027501608578	1.74695668624613	7.089101191325485	15.72263812911689	58.30598804001411
0.18	87.16610490255408	17.68729847990632	14.69941507626403	46.55307633067634	68.13339509539392	42.53366081693387	6.633048577222814	5.503464169752963	47.1338305750021	38.59934517044537	3.242319797238714	3.82957232473147	1.61706264104046	6.720485224421177	15.19201691777946	60.3547229329566
0.19	94.01114636968978	17.50162857342766	14.48260203259133	46.86411295549963	67.58806368686281	42.47432200823076	6.764297657135331	5.609337650829985	46.81378524091761	37.80058659140043	3.355027664823398	3.899130489962809	1.48343335754618	6.323488333521012	14.55892329245032	62.19957709934891
